<mxfile host="app.diagrams.net" modified="2023-03-09T06:57:17.364Z" agent="5.0 (Macintosh; Intel Mac OS X 10_15_7) AppleWebKit/537.36 (KHTML, like Gecko) Chrome/110.0.0.0 Safari/537.36" etag="gmJwGZTib0Mm8Q8WAQGx" version="21.0.2" type="github" pages="4">
  <diagram name="第 1 页" id="pdHB1KwC9OdD0lzzkn8h">
    <mxGraphModel dx="954" dy="648" grid="1" gridSize="10" guides="1" tooltips="1" connect="1" arrows="1" fold="1" page="1" pageScale="1" pageWidth="827" pageHeight="1169" math="0" shadow="0">
      <root>
        <mxCell id="0" />
        <mxCell id="1" parent="0" />
        <mxCell id="3epgwcAaoq6Mlc2vSQ9l-6" value="" style="edgeStyle=orthogonalEdgeStyle;rounded=0;orthogonalLoop=1;jettySize=auto;html=1;" parent="1" source="3epgwcAaoq6Mlc2vSQ9l-2" target="3epgwcAaoq6Mlc2vSQ9l-4" edge="1">
          <mxGeometry relative="1" as="geometry" />
        </mxCell>
        <mxCell id="3epgwcAaoq6Mlc2vSQ9l-2" value="业务调用方" style="whiteSpace=wrap;html=1;aspect=fixed;fillColor=#d5e8d4;strokeColor=#82b366;" parent="1" vertex="1">
          <mxGeometry x="300" y="90" width="130" height="130" as="geometry" />
        </mxCell>
        <mxCell id="3epgwcAaoq6Mlc2vSQ9l-3" value="权限服务" style="whiteSpace=wrap;html=1;aspect=fixed;fillColor=#dae8fc;strokeColor=#6c8ebf;" parent="1" vertex="1">
          <mxGeometry x="120" y="260" width="130" height="130" as="geometry" />
        </mxCell>
        <mxCell id="3epgwcAaoq6Mlc2vSQ9l-5" style="edgeStyle=orthogonalEdgeStyle;rounded=0;orthogonalLoop=1;jettySize=auto;html=1;entryX=1;entryY=0.5;entryDx=0;entryDy=0;" parent="1" source="3epgwcAaoq6Mlc2vSQ9l-4" target="3epgwcAaoq6Mlc2vSQ9l-3" edge="1">
          <mxGeometry relative="1" as="geometry" />
        </mxCell>
        <mxCell id="3epgwcAaoq6Mlc2vSQ9l-4" value="SCRM OpenAPI" style="whiteSpace=wrap;html=1;aspect=fixed;fillColor=#e1d5e7;strokeColor=#9673a6;" parent="1" vertex="1">
          <mxGeometry x="300" y="260" width="130" height="130" as="geometry" />
        </mxCell>
        <mxCell id="3epgwcAaoq6Mlc2vSQ9l-7" value="DB" style="shape=cylinder3;whiteSpace=wrap;html=1;boundedLbl=1;backgroundOutline=1;size=15;fillColor=#f8cecc;strokeColor=#b85450;" parent="1" vertex="1">
          <mxGeometry x="120" y="530" width="60" height="80" as="geometry" />
        </mxCell>
        <mxCell id="3epgwcAaoq6Mlc2vSQ9l-10" style="edgeStyle=orthogonalEdgeStyle;rounded=0;orthogonalLoop=1;jettySize=auto;html=1;" parent="1" source="3epgwcAaoq6Mlc2vSQ9l-9" target="3epgwcAaoq6Mlc2vSQ9l-7" edge="1">
          <mxGeometry relative="1" as="geometry" />
        </mxCell>
        <mxCell id="3epgwcAaoq6Mlc2vSQ9l-9" value="内存缓存" style="rounded=0;whiteSpace=wrap;html=1;fillColor=#fff2cc;strokeColor=#d6b656;" parent="1" vertex="1">
          <mxGeometry x="170" y="350" width="80" height="40" as="geometry" />
        </mxCell>
        <mxCell id="3epgwcAaoq6Mlc2vSQ9l-11" value="服务启动时 load 到内存" style="text;html=1;align=center;verticalAlign=middle;resizable=0;points=[];autosize=1;strokeColor=none;fillColor=none;" parent="1" vertex="1">
          <mxGeometry x="180" y="460" width="150" height="30" as="geometry" />
        </mxCell>
        <mxCell id="3epgwcAaoq6Mlc2vSQ9l-12" value="定时刷新" style="ellipse;whiteSpace=wrap;html=1;aspect=fixed;fillColor=#d5e8d4;strokeColor=#82b366;" parent="1" vertex="1">
          <mxGeometry x="210" y="490" width="80" height="80" as="geometry" />
        </mxCell>
      </root>
    </mxGraphModel>
  </diagram>
  <diagram id="Xu0MiRLOLOqHA3C8pvfB" name="第 2 页">
    <mxGraphModel dx="830" dy="1732" grid="1" gridSize="10" guides="1" tooltips="1" connect="1" arrows="1" fold="1" page="1" pageScale="1" pageWidth="827" pageHeight="1169" math="0" shadow="0">
      <root>
        <mxCell id="0" />
        <mxCell id="1" parent="0" />
        <mxCell id="y-V6NoOLEK84fY5d1T-m-1" value="权限元数据" style="rounded=0;whiteSpace=wrap;html=1;" vertex="1" parent="1">
          <mxGeometry x="180" y="140" width="120" height="60" as="geometry" />
        </mxCell>
        <mxCell id="y-V6NoOLEK84fY5d1T-m-3" style="edgeStyle=orthogonalEdgeStyle;rounded=0;orthogonalLoop=1;jettySize=auto;html=1;entryX=0.5;entryY=1;entryDx=0;entryDy=0;" edge="1" parent="1" source="y-V6NoOLEK84fY5d1T-m-2" target="y-V6NoOLEK84fY5d1T-m-1">
          <mxGeometry relative="1" as="geometry" />
        </mxCell>
        <mxCell id="y-V6NoOLEK84fY5d1T-m-2" value="权限申请记录" style="rounded=0;whiteSpace=wrap;html=1;" vertex="1" parent="1">
          <mxGeometry x="120" y="290" width="120" height="60" as="geometry" />
        </mxCell>
        <mxCell id="y-V6NoOLEK84fY5d1T-m-5" value="" style="endArrow=classic;html=1;rounded=0;entryX=1;entryY=0.5;entryDx=0;entryDy=0;" edge="1" parent="1" target="y-V6NoOLEK84fY5d1T-m-1">
          <mxGeometry width="50" height="50" relative="1" as="geometry">
            <mxPoint x="400" y="170" as="sourcePoint" />
            <mxPoint x="500" y="310" as="targetPoint" />
          </mxGeometry>
        </mxCell>
        <mxCell id="y-V6NoOLEK84fY5d1T-m-6" value="权限元数据&lt;br&gt;内容编辑接口" style="rounded=0;whiteSpace=wrap;html=1;" vertex="1" parent="1">
          <mxGeometry x="510" y="480" width="120" height="60" as="geometry" />
        </mxCell>
        <mxCell id="y-V6NoOLEK84fY5d1T-m-8" style="edgeStyle=orthogonalEdgeStyle;rounded=0;orthogonalLoop=1;jettySize=auto;html=1;exitX=0.5;exitY=1;exitDx=0;exitDy=0;" edge="1" parent="1" source="y-V6NoOLEK84fY5d1T-m-7">
          <mxGeometry relative="1" as="geometry">
            <mxPoint x="350" y="170" as="targetPoint" />
          </mxGeometry>
        </mxCell>
        <mxCell id="y-V6NoOLEK84fY5d1T-m-11" style="edgeStyle=orthogonalEdgeStyle;rounded=0;orthogonalLoop=1;jettySize=auto;html=1;exitX=0.5;exitY=1;exitDx=0;exitDy=0;" edge="1" parent="1" source="y-V6NoOLEK84fY5d1T-m-7">
          <mxGeometry relative="1" as="geometry">
            <mxPoint x="580" y="230" as="targetPoint" />
            <Array as="points">
              <mxPoint x="450" y="110" />
              <mxPoint x="540" y="110" />
              <mxPoint x="540" y="230" />
            </Array>
          </mxGeometry>
        </mxCell>
        <mxCell id="y-V6NoOLEK84fY5d1T-m-7" value="配置文件" style="rounded=0;whiteSpace=wrap;html=1;" vertex="1" parent="1">
          <mxGeometry x="390" y="-10" width="120" height="60" as="geometry" />
        </mxCell>
        <mxCell id="y-V6NoOLEK84fY5d1T-m-9" value="验证" style="text;html=1;align=center;verticalAlign=middle;resizable=0;points=[];autosize=1;strokeColor=none;fillColor=none;" vertex="1" parent="1">
          <mxGeometry x="450" y="80" width="50" height="30" as="geometry" />
        </mxCell>
        <mxCell id="y-V6NoOLEK84fY5d1T-m-13" style="edgeStyle=orthogonalEdgeStyle;rounded=0;orthogonalLoop=1;jettySize=auto;html=1;entryX=1;entryY=0.5;entryDx=0;entryDy=0;" edge="1" parent="1" source="y-V6NoOLEK84fY5d1T-m-10" target="y-V6NoOLEK84fY5d1T-m-12">
          <mxGeometry relative="1" as="geometry">
            <Array as="points">
              <mxPoint x="580" y="170" />
              <mxPoint x="580" y="270" />
            </Array>
          </mxGeometry>
        </mxCell>
        <mxCell id="y-V6NoOLEK84fY5d1T-m-10" value="分配 sysCode 和 secret 接口" style="rounded=0;whiteSpace=wrap;html=1;" vertex="1" parent="1">
          <mxGeometry x="360" y="480" width="120" height="60" as="geometry" />
        </mxCell>
        <mxCell id="y-V6NoOLEK84fY5d1T-m-14" style="edgeStyle=orthogonalEdgeStyle;rounded=0;orthogonalLoop=1;jettySize=auto;html=1;" edge="1" parent="1" source="y-V6NoOLEK84fY5d1T-m-12">
          <mxGeometry relative="1" as="geometry">
            <mxPoint x="350" y="360" as="targetPoint" />
          </mxGeometry>
        </mxCell>
        <mxCell id="y-V6NoOLEK84fY5d1T-m-12" value="sysCode 和 secret &lt;br&gt;关系" style="rounded=0;whiteSpace=wrap;html=1;" vertex="1" parent="1">
          <mxGeometry x="400" y="240" width="120" height="60" as="geometry" />
        </mxCell>
        <mxCell id="y-V6NoOLEK84fY5d1T-m-15" value="验证" style="text;html=1;align=center;verticalAlign=middle;resizable=0;points=[];autosize=1;strokeColor=none;fillColor=none;" vertex="1" parent="1">
          <mxGeometry x="340" y="300" width="50" height="30" as="geometry" />
        </mxCell>
        <mxCell id="y-V6NoOLEK84fY5d1T-m-17" style="edgeStyle=orthogonalEdgeStyle;rounded=0;orthogonalLoop=1;jettySize=auto;html=1;entryX=1;entryY=0.5;entryDx=0;entryDy=0;" edge="1" parent="1" source="y-V6NoOLEK84fY5d1T-m-16" target="y-V6NoOLEK84fY5d1T-m-2">
          <mxGeometry relative="1" as="geometry" />
        </mxCell>
        <mxCell id="y-V6NoOLEK84fY5d1T-m-16" value="权限申请接口" style="rounded=0;whiteSpace=wrap;html=1;" vertex="1" parent="1">
          <mxGeometry x="210" y="480" width="120" height="60" as="geometry" />
        </mxCell>
        <mxCell id="y-V6NoOLEK84fY5d1T-m-19" style="edgeStyle=orthogonalEdgeStyle;rounded=0;orthogonalLoop=1;jettySize=auto;html=1;entryX=0.5;entryY=1;entryDx=0;entryDy=0;" edge="1" parent="1" source="y-V6NoOLEK84fY5d1T-m-18" target="y-V6NoOLEK84fY5d1T-m-2">
          <mxGeometry relative="1" as="geometry" />
        </mxCell>
        <mxCell id="y-V6NoOLEK84fY5d1T-m-18" value="权限访问接口" style="rounded=0;whiteSpace=wrap;html=1;" vertex="1" parent="1">
          <mxGeometry x="50" y="480" width="120" height="60" as="geometry" />
        </mxCell>
      </root>
    </mxGraphModel>
  </diagram>
  <diagram id="uTgmRQymx-CbXQBkYNLS" name="第 3 页">
    <mxGraphModel dx="954" dy="591" grid="1" gridSize="10" guides="1" tooltips="1" connect="1" arrows="1" fold="1" page="1" pageScale="1" pageWidth="827" pageHeight="1169" math="0" shadow="0">
      <root>
        <mxCell id="0" />
        <mxCell id="1" parent="0" />
        <mxCell id="NFfZtxU-pxko2U00piSy-4" value="" style="rounded=0;whiteSpace=wrap;html=1;dashed=1;dashPattern=12 12;fillColor=#d5e8d4;strokeColor=#82b366;" vertex="1" parent="1">
          <mxGeometry x="380" y="70" width="470" height="100" as="geometry" />
        </mxCell>
        <mxCell id="GaJonJVjiJmYuSNNlLLM-7" style="edgeStyle=orthogonalEdgeStyle;rounded=1;orthogonalLoop=1;jettySize=auto;html=1;strokeWidth=2;fillColor=#e1d5e7;strokeColor=#9673a6;" edge="1" parent="1" source="lG0A918e4B1PARYMKZnZ-1" target="RNTajA9lncL3NSJ4oicH-2">
          <mxGeometry relative="1" as="geometry">
            <Array as="points">
              <mxPoint x="615" y="280" />
              <mxPoint x="625" y="280" />
            </Array>
          </mxGeometry>
        </mxCell>
        <mxCell id="lG0A918e4B1PARYMKZnZ-1" value="权限元数据&lt;br&gt;内容编辑接口" style="rounded=0;whiteSpace=wrap;html=1;fillColor=#e1d5e7;strokeColor=#9673a6;" vertex="1" parent="1">
          <mxGeometry x="555" y="90" width="120" height="60" as="geometry" />
        </mxCell>
        <mxCell id="GaJonJVjiJmYuSNNlLLM-5" style="edgeStyle=orthogonalEdgeStyle;rounded=1;orthogonalLoop=1;jettySize=auto;html=1;entryX=0.25;entryY=0;entryDx=0;entryDy=0;strokeWidth=2;fillColor=#f8cecc;strokeColor=#b85450;" edge="1" parent="1" source="lG0A918e4B1PARYMKZnZ-2" target="RNTajA9lncL3NSJ4oicH-2">
          <mxGeometry relative="1" as="geometry">
            <Array as="points">
              <mxPoint x="460" y="280" />
              <mxPoint x="508" y="280" />
            </Array>
          </mxGeometry>
        </mxCell>
        <mxCell id="lG0A918e4B1PARYMKZnZ-2" value="分配 sysCode 和 secret 接口" style="rounded=0;whiteSpace=wrap;html=1;fillColor=#e1d5e7;strokeColor=#9673a6;" vertex="1" parent="1">
          <mxGeometry x="400" y="90" width="120" height="60" as="geometry" />
        </mxCell>
        <mxCell id="RNTajA9lncL3NSJ4oicH-15" style="edgeStyle=orthogonalEdgeStyle;rounded=1;orthogonalLoop=1;jettySize=auto;html=1;entryX=0.5;entryY=0;entryDx=0;entryDy=0;endArrow=classicThin;endFill=1;strokeWidth=2;" edge="1" parent="1" source="lG0A918e4B1PARYMKZnZ-3" target="RNTajA9lncL3NSJ4oicH-3">
          <mxGeometry relative="1" as="geometry" />
        </mxCell>
        <mxCell id="lG0A918e4B1PARYMKZnZ-3" value="权限申请接口" style="rounded=0;whiteSpace=wrap;html=1;fillColor=#fff2cc;strokeColor=#d6b656;" vertex="1" parent="1">
          <mxGeometry x="220" y="90" width="120" height="60" as="geometry" />
        </mxCell>
        <mxCell id="RNTajA9lncL3NSJ4oicH-14" style="edgeStyle=orthogonalEdgeStyle;rounded=1;orthogonalLoop=1;jettySize=auto;html=1;entryX=0.5;entryY=0;entryDx=0;entryDy=0;strokeWidth=2;" edge="1" parent="1" source="lG0A918e4B1PARYMKZnZ-4" target="RNTajA9lncL3NSJ4oicH-3">
          <mxGeometry relative="1" as="geometry" />
        </mxCell>
        <mxCell id="lG0A918e4B1PARYMKZnZ-4" value="权限访问接口" style="rounded=0;whiteSpace=wrap;html=1;fillColor=#fff2cc;strokeColor=#d6b656;" vertex="1" parent="1">
          <mxGeometry x="70" y="90" width="120" height="60" as="geometry" />
        </mxCell>
        <mxCell id="AOq_z9OTkCTqWJBhyPS6-1" value="权限申请记录" style="rounded=0;whiteSpace=wrap;html=1;fillColor=#dae8fc;strokeColor=#6c8ebf;" vertex="1" parent="1">
          <mxGeometry x="680" y="440" width="180" height="60" as="geometry" />
        </mxCell>
        <mxCell id="GaJonJVjiJmYuSNNlLLM-10" style="edgeStyle=orthogonalEdgeStyle;rounded=0;orthogonalLoop=1;jettySize=auto;html=1;entryX=0;entryY=0.5;entryDx=0;entryDy=0;strokeWidth=2;" edge="1" parent="1" source="RNTajA9lncL3NSJ4oicH-1" target="AOq_z9OTkCTqWJBhyPS6-1">
          <mxGeometry relative="1" as="geometry" />
        </mxCell>
        <mxCell id="RNTajA9lncL3NSJ4oicH-1" value="权限元数据" style="rounded=0;whiteSpace=wrap;html=1;fillColor=#d5e8d4;strokeColor=#82b366;" vertex="1" parent="1">
          <mxGeometry x="390" y="440" width="200" height="60" as="geometry" />
        </mxCell>
        <mxCell id="GaJonJVjiJmYuSNNlLLM-8" value="" style="edgeStyle=orthogonalEdgeStyle;rounded=1;orthogonalLoop=1;jettySize=auto;html=1;strokeWidth=2;fillColor=#e1d5e7;strokeColor=#9673a6;" edge="1" parent="1" source="RNTajA9lncL3NSJ4oicH-2" target="RNTajA9lncL3NSJ4oicH-1">
          <mxGeometry relative="1" as="geometry" />
        </mxCell>
        <mxCell id="GaJonJVjiJmYuSNNlLLM-11" style="edgeStyle=orthogonalEdgeStyle;rounded=1;orthogonalLoop=1;jettySize=auto;html=1;entryX=0.75;entryY=0;entryDx=0;entryDy=0;strokeWidth=2;fillColor=#f8cecc;strokeColor=#b85450;" edge="1" parent="1" source="RNTajA9lncL3NSJ4oicH-2" target="RNTajA9lncL3NSJ4oicH-3">
          <mxGeometry relative="1" as="geometry">
            <Array as="points">
              <mxPoint x="370" y="360" />
              <mxPoint x="370" y="300" />
              <mxPoint x="278" y="300" />
            </Array>
          </mxGeometry>
        </mxCell>
        <mxCell id="GaJonJVjiJmYuSNNlLLM-12" style="edgeStyle=orthogonalEdgeStyle;rounded=1;orthogonalLoop=1;jettySize=auto;html=1;exitX=0.75;exitY=1;exitDx=0;exitDy=0;strokeWidth=2;fillColor=#dae8fc;strokeColor=#6c8ebf;" edge="1" parent="1" source="RNTajA9lncL3NSJ4oicH-2" target="AOq_z9OTkCTqWJBhyPS6-1">
          <mxGeometry relative="1" as="geometry" />
        </mxCell>
        <mxCell id="RNTajA9lncL3NSJ4oicH-2" value="配置文件验证权限" style="rounded=0;whiteSpace=wrap;html=1;fillColor=#f8cecc;strokeColor=#b85450;" vertex="1" parent="1">
          <mxGeometry x="390" y="330" width="470" height="60" as="geometry" />
        </mxCell>
        <mxCell id="RNTajA9lncL3NSJ4oicH-16" style="edgeStyle=orthogonalEdgeStyle;rounded=1;orthogonalLoop=1;jettySize=auto;html=1;strokeWidth=2;entryX=0.5;entryY=1;entryDx=0;entryDy=0;" edge="1" parent="1" source="RNTajA9lncL3NSJ4oicH-3" target="AOq_z9OTkCTqWJBhyPS6-1">
          <mxGeometry relative="1" as="geometry">
            <mxPoint x="750" y="500" as="targetPoint" />
            <Array as="points">
              <mxPoint x="205" y="520" />
              <mxPoint x="770" y="520" />
            </Array>
          </mxGeometry>
        </mxCell>
        <mxCell id="RNTajA9lncL3NSJ4oicH-3" value="sysCode 和 secret &lt;br&gt;关系验证权限" style="rounded=0;whiteSpace=wrap;html=1;fillColor=#f8cecc;strokeColor=#b85450;" vertex="1" parent="1">
          <mxGeometry x="60" y="330" width="290" height="60" as="geometry" />
        </mxCell>
        <mxCell id="RNTajA9lncL3NSJ4oicH-11" value="写入" style="text;html=1;align=center;verticalAlign=middle;resizable=0;points=[];autosize=1;strokeColor=none;fillColor=none;" vertex="1" parent="1">
          <mxGeometry x="310" y="260" width="50" height="30" as="geometry" />
        </mxCell>
        <mxCell id="RNTajA9lncL3NSJ4oicH-13" value="编辑/修改/创建/删除" style="text;html=1;align=center;verticalAlign=middle;resizable=0;points=[];autosize=1;strokeColor=none;fillColor=none;" vertex="1" parent="1">
          <mxGeometry x="490" y="410" width="130" height="30" as="geometry" />
        </mxCell>
        <mxCell id="RNTajA9lncL3NSJ4oicH-19" value="引用" style="text;html=1;align=center;verticalAlign=middle;resizable=0;points=[];autosize=1;strokeColor=none;fillColor=none;" vertex="1" parent="1">
          <mxGeometry x="610" y="440" width="50" height="30" as="geometry" />
        </mxCell>
        <mxCell id="GaJonJVjiJmYuSNNlLLM-9" style="edgeStyle=orthogonalEdgeStyle;rounded=1;orthogonalLoop=1;jettySize=auto;html=1;entryX=0.75;entryY=0;entryDx=0;entryDy=0;strokeWidth=2;fillColor=#dae8fc;strokeColor=#6c8ebf;" edge="1" parent="1" source="NFfZtxU-pxko2U00piSy-1" target="RNTajA9lncL3NSJ4oicH-2">
          <mxGeometry relative="1" as="geometry">
            <Array as="points">
              <mxPoint x="760" y="280" />
              <mxPoint x="743" y="280" />
            </Array>
          </mxGeometry>
        </mxCell>
        <mxCell id="NFfZtxU-pxko2U00piSy-1" value="权限申请处理接口" style="rounded=0;whiteSpace=wrap;html=1;fillColor=#e1d5e7;strokeColor=#9673a6;" vertex="1" parent="1">
          <mxGeometry x="700" y="90" width="120" height="60" as="geometry" />
        </mxCell>
        <mxCell id="NFfZtxU-pxko2U00piSy-5" value="内部接口，只对管理员开放" style="text;html=1;align=center;verticalAlign=middle;resizable=0;points=[];autosize=1;strokeColor=none;fillColor=none;" vertex="1" parent="1">
          <mxGeometry x="370" y="40" width="170" height="30" as="geometry" />
        </mxCell>
      </root>
    </mxGraphModel>
  </diagram>
  <diagram id="_VhzxBNxR2r-VFA9Ih_v" name="第 4 页">
    <mxGraphModel dx="954" dy="648" grid="1" gridSize="10" guides="1" tooltips="1" connect="1" arrows="1" fold="1" page="1" pageScale="1" pageWidth="827" pageHeight="1169" math="0" shadow="0">
      <root>
        <mxCell id="0" />
        <mxCell id="1" parent="0" />
        <mxCell id="1Lj0lA1RQ71ZidmQM32h-7" style="edgeStyle=orthogonalEdgeStyle;rounded=1;orthogonalLoop=1;jettySize=auto;html=1;entryX=0.5;entryY=0;entryDx=0;entryDy=0;strokeWidth=2;" edge="1" parent="1" source="1Lj0lA1RQ71ZidmQM32h-8" target="1Lj0lA1RQ71ZidmQM32h-16">
          <mxGeometry relative="1" as="geometry" />
        </mxCell>
        <mxCell id="1Lj0lA1RQ71ZidmQM32h-8" value="发送消息接口" style="rounded=0;whiteSpace=wrap;html=1;fillColor=#fff2cc;strokeColor=#d6b656;" vertex="1" parent="1">
          <mxGeometry x="80" y="210" width="290" height="60" as="geometry" />
        </mxCell>
        <mxCell id="1Lj0lA1RQ71ZidmQM32h-10" value="发送" style="rounded=0;whiteSpace=wrap;html=1;fillColor=#dae8fc;strokeColor=#6c8ebf;" vertex="1" parent="1">
          <mxGeometry x="80" y="560" width="290" height="60" as="geometry" />
        </mxCell>
        <mxCell id="1Lj0lA1RQ71ZidmQM32h-21" value="" style="edgeStyle=orthogonalEdgeStyle;rounded=0;orthogonalLoop=1;jettySize=auto;html=1;strokeWidth=2;" edge="1" parent="1" source="1Lj0lA1RQ71ZidmQM32h-11" target="1Lj0lA1RQ71ZidmQM32h-10">
          <mxGeometry relative="1" as="geometry" />
        </mxCell>
        <mxCell id="1Lj0lA1RQ71ZidmQM32h-11" value="消息权限验证" style="rounded=0;whiteSpace=wrap;html=1;fillColor=#d5e8d4;strokeColor=#82b366;" vertex="1" parent="1">
          <mxGeometry x="80" y="440" width="290" height="70" as="geometry" />
        </mxCell>
        <mxCell id="1Lj0lA1RQ71ZidmQM32h-20" value="" style="edgeStyle=orthogonalEdgeStyle;rounded=1;orthogonalLoop=1;jettySize=auto;html=1;strokeWidth=2;" edge="1" parent="1" source="1Lj0lA1RQ71ZidmQM32h-16" target="1Lj0lA1RQ71ZidmQM32h-11">
          <mxGeometry relative="1" as="geometry" />
        </mxCell>
        <mxCell id="1Lj0lA1RQ71ZidmQM32h-16" value="权限中心接口级控制" style="rounded=0;whiteSpace=wrap;html=1;fillColor=#f8cecc;strokeColor=#b85450;" vertex="1" parent="1">
          <mxGeometry x="80" y="320" width="290" height="70" as="geometry" />
        </mxCell>
      </root>
    </mxGraphModel>
  </diagram>
</mxfile>
